<svg xmlns="http://www.w3.org/2000/svg" xmlns:xlink="http://www.w3.org/1999/xlink" width="500" zoomAndPan="magnify" viewBox="0 0 375 374.999991" height="500" preserveAspectRatio="xMidYMid meet" version="1.0"><defs><g/><clipPath id="4468c0491d"><path d="M 55.273438 18.445312 L 321.523438 18.445312 L 321.523438 284.695312 L 55.273438 284.695312 Z M 55.273438 18.445312 " clip-rule="nonzero"/></clipPath><clipPath id="895cc24f4b"><path d="M 55.273438 18.445312 L 321.523438 18.445312 L 321.523438 216 L 55.273438 216 Z M 55.273438 18.445312 " clip-rule="nonzero"/></clipPath></defs><g clip-path="url(#4468c0491d)"><path fill="#ffffff" d="M 188.398438 18.445312 C 114.875 18.445312 55.273438 78.046875 55.273438 151.570312 C 55.273438 225.09375 114.875 284.695312 188.398438 284.695312 C 261.921875 284.695312 321.523438 225.09375 321.523438 151.570312 C 321.523438 78.046875 261.921875 18.445312 188.398438 18.445312 " fill-opacity="1" fill-rule="nonzero"/></g><g fill="#708e63" fill-opacity="1"><g transform="translate(43.620053, 333.579637)"><g><path d="M 1.78125 -3.703125 C 2.875 -3.160156 4.046875 -2.890625 5.296875 -2.890625 C 6.546875 -2.890625 7.523438 -3.050781 8.234375 -3.375 C 8.953125 -3.707031 9.503906 -4.1875 9.890625 -4.8125 C 10.566406 -5.863281 10.90625 -7.613281 10.90625 -10.0625 L 10.90625 -33.4375 L 14.625 -33.4375 L 14.625 -10.3125 C 14.625 -7.957031 14.476562 -6.203125 14.1875 -5.046875 C 13.894531 -3.890625 13.457031 -2.953125 12.875 -2.234375 C 12.289062 -1.515625 11.613281 -0.957031 10.84375 -0.5625 C 9.507812 0.101562 7.703125 0.4375 5.421875 0.4375 C 3.785156 0.4375 2.382812 0.304688 1.21875 0.046875 Z M 1.78125 -3.703125 "/></g></g></g><g fill="#708e63" fill-opacity="1"><g transform="translate(68.579476, 333.579637)"><g><path d="M 22.828125 0.1875 C 22.359375 0.351562 21.769531 0.4375 21.0625 0.4375 C 20.363281 0.4375 19.785156 0.351562 19.328125 0.1875 C 18.878906 0.03125 18.488281 -0.1875 18.15625 -0.46875 C 17.507812 -1.019531 17.09375 -1.742188 16.90625 -2.640625 C 16.132812 -1.453125 14.742188 -0.550781 12.734375 0.0625 C 10.929688 0.625 9.109375 0.585938 7.265625 -0.046875 C 5.285156 -0.703125 3.859375 -1.910156 2.984375 -3.671875 C 2.546875 -4.566406 2.328125 -5.546875 2.328125 -6.609375 C 2.328125 -7.679688 2.535156 -8.585938 2.953125 -9.328125 C 3.367188 -10.066406 3.921875 -10.671875 4.609375 -11.140625 C 5.898438 -12.046875 7.628906 -12.59375 9.796875 -12.78125 C 11.523438 -12.945312 13.769531 -13.066406 16.53125 -13.140625 L 16.53125 -17.015625 C 16.53125 -18.835938 16.425781 -19.976562 16.21875 -20.4375 C 16.007812 -20.894531 15.757812 -21.238281 15.46875 -21.46875 C 14.976562 -21.84375 13.988281 -22.03125 12.5 -22.03125 L 11.6875 -22.015625 C 9.445312 -21.898438 7.269531 -21.53125 5.15625 -20.90625 L 4.5625 -24.09375 C 7.070312 -24.820312 9.539062 -25.1875 11.96875 -25.1875 C 15.414062 -25.1875 17.679688 -24.535156 18.765625 -23.234375 C 19.410156 -22.441406 19.796875 -21.472656 19.921875 -20.328125 C 20.046875 -19.179688 20.117188 -18.117188 20.140625 -17.140625 L 20.140625 -4.859375 C 20.140625 -3.640625 20.25 -2.910156 20.46875 -2.671875 C 20.695312 -2.441406 20.957031 -2.328125 21.25 -2.328125 C 21.539062 -2.328125 21.988281 -2.375 22.59375 -2.46875 Z M 16.53125 -7.875 C 16.53125 -8.894531 16.554688 -9.832031 16.609375 -10.6875 C 11.578125 -10.6875 8.40625 -10.207031 7.09375 -9.25 C 6.363281 -8.738281 6 -7.9375 6 -6.84375 C 6 -5.59375 6.421875 -4.570312 7.265625 -3.78125 C 8.085938 -3.019531 9.160156 -2.640625 10.484375 -2.640625 C 13.015625 -2.566406 15.03125 -3.363281 16.53125 -5.03125 Z M 16.53125 -7.875 "/></g></g></g><g fill="#708e63" fill-opacity="1"><g transform="translate(100.916908, 333.579637)"><g><path d="M 7.984375 -15.96875 C 8.035156 -14.875 8.0625 -13.492188 8.0625 -11.828125 L 8.0625 0 L 4.4375 0 C 4.4375 -15.21875 4.347656 -23.515625 4.171875 -24.890625 L 7.75 -25.1875 L 7.75 -19.140625 C 9.65625 -23.171875 12.210938 -25.1875 15.421875 -25.1875 C 16.523438 -25.1875 17.4375 -25.101562 18.15625 -24.9375 L 17.359375 -21.109375 C 16.671875 -21.453125 15.898438 -21.625 15.046875 -21.625 C 14.191406 -21.632812 13.410156 -21.445312 12.703125 -21.0625 C 12.003906 -20.675781 11.363281 -20.195312 10.78125 -19.625 C 10.207031 -19.050781 9.691406 -18.429688 9.234375 -17.765625 Z M 7.984375 -15.96875 "/></g></g></g><g fill="#708e63" fill-opacity="1"><g transform="translate(125.876331, 333.579637)"><g><path d="M 20.375 -3.234375 C 17.851562 -0.785156 15.207031 0.4375 12.4375 0.4375 C 8.101562 0.488281 5.226562 -1.65625 3.8125 -6 C 3.21875 -7.832031 2.941406 -9.800781 2.984375 -11.90625 C 3.023438 -14.007812 3.234375 -15.84375 3.609375 -17.40625 C 3.984375 -18.976562 4.566406 -20.347656 5.359375 -21.515625 C 7.066406 -23.960938 9.617188 -25.1875 13.015625 -25.1875 C 15.609375 -25.144531 18.046875 -24.550781 20.328125 -23.40625 L 20.328125 -35.15625 L 23.96875 -34.859375 L 23.96875 -23.5 C 23.96875 -9.382812 24.015625 -1.550781 24.109375 0 L 20.734375 0 Z M 20.4375 -20.765625 C 18.382812 -21.566406 15.988281 -21.992188 13.25 -22.046875 C 9.789062 -22.046875 7.753906 -20.054688 7.140625 -16.078125 C 6.484375 -11.765625 6.71875 -8.34375 7.84375 -5.8125 C 8.75 -3.769531 10.375 -2.75 12.71875 -2.75 C 15.539062 -2.75 18.09375 -3.96875 20.375 -6.40625 L 20.375 -17 C 20.375 -17.601562 20.378906 -18.207031 20.390625 -18.8125 C 20.410156 -19.425781 20.425781 -20.078125 20.4375 -20.765625 Z M 20.4375 -20.765625 "/></g></g></g><g fill="#708e63" fill-opacity="1"><g transform="translate(161.956549, 333.579637)"><g><path d="M 5.53125 -34.859375 L 9.1875 -34.859375 L 9.1875 -29.734375 L 5.53125 -29.734375 Z M 5.53125 -24.890625 L 9.1875 -24.890625 L 9.1875 0 L 5.53125 0 Z M 5.53125 -24.890625 "/></g></g></g><g fill="#708e63" fill-opacity="1"><g transform="translate(183.280733, 333.579637)"><g><path d="M 4.28125 -21.625 L 3.59375 -34.453125 L 7.421875 -34.453125 L 6.734375 -21.625 Z M 4.28125 -21.625 "/></g></g></g><g fill="#c18845" fill-opacity="1"><g transform="translate(175.649594, 352.584396)"><g><path d="M 23.765625 -0.25 C 22.085938 0.21875 20.1875 0.453125 18.0625 0.453125 C 15.945312 0.453125 13.910156 0.0546875 11.953125 -0.734375 C 9.992188 -1.523438 8.328125 -2.675781 6.953125 -4.1875 C 4.109375 -7.3125 2.6875 -11.671875 2.6875 -17.265625 C 2.6875 -22.816406 4.210938 -27.207031 7.265625 -30.4375 C 10.234375 -33.570312 14.160156 -35.140625 19.046875 -35.140625 C 24.203125 -35.140625 28.148438 -33.570312 30.890625 -30.4375 C 33.585938 -27.34375 34.9375 -22.953125 34.9375 -17.265625 C 34.9375 -11.734375 33.421875 -7.382812 30.390625 -4.21875 C 29.429688 -3.21875 28.347656 -2.375 27.140625 -1.6875 L 33.0625 5.453125 L 29.296875 7.984375 C 28.753906 7.203125 28.160156 6.285156 27.515625 5.234375 C 26.878906 4.179688 26.203125 3.144531 25.484375 2.125 Z M 6.6875 -17.21875 C 6.664062 -14.894531 6.929688 -12.84375 7.484375 -11.0625 C 8.035156 -9.28125 8.84375 -7.789062 9.90625 -6.59375 C 12.039062 -4.1875 15.03125 -3.015625 18.875 -3.078125 C 22.65625 -3.097656 25.613281 -4.328125 27.75 -6.765625 C 29.957031 -9.296875 31.035156 -12.875 30.984375 -17.5 C 30.859375 -26.914062 26.71875 -31.625 18.5625 -31.625 C 14.84375 -31.625 11.941406 -30.367188 9.859375 -27.859375 C 7.765625 -25.335938 6.707031 -21.789062 6.6875 -17.21875 Z M 6.6875 -17.21875 "/></g></g></g><g fill="#c18845" fill-opacity="1"><g transform="translate(220.752038, 352.584396)"><g><path d="M 25.28125 -21.671875 L 25.28125 -10.46875 C 25.28125 -4.414062 25.378906 -0.925781 25.578125 0 L 22.078125 0 L 21.640625 -3.625 C 19.828125 -1.726562 17.726562 -0.472656 15.34375 0.140625 C 14.5 0.347656 13.519531 0.441406 12.40625 0.421875 C 11.289062 0.410156 10.203125 0.210938 9.140625 -0.171875 C 8.085938 -0.566406 7.191406 -1.128906 6.453125 -1.859375 C 4.929688 -3.378906 4.203125 -5.507812 4.265625 -8.25 L 4.265625 -25.9375 L 8.078125 -26.25 L 8.078125 -9.59375 C 8.078125 -7.226562 8.421875 -5.539062 9.109375 -4.53125 C 9.828125 -3.476562 11.019531 -2.941406 12.6875 -2.921875 C 14.363281 -2.910156 15.90625 -3.222656 17.3125 -3.859375 C 18.71875 -4.492188 20.160156 -5.4375 21.640625 -6.6875 L 21.546875 -8.3125 C 21.503906 -9.03125 21.484375 -10.046875 21.484375 -11.359375 L 21.484375 -25.9375 L 25.3125 -26.25 C 25.289062 -24.625 25.28125 -23.097656 25.28125 -21.671875 Z M 25.28125 -21.671875 "/></g></g></g><g fill="#c18845" fill-opacity="1"><g transform="translate(258.188905, 352.584396)"><g><path d="M 21.453125 -0.78125 C 19.253906 0.0390625 17.054688 0.453125 14.859375 0.453125 C 10.378906 0.453125 7.144531 -0.90625 5.15625 -3.625 C 3.53125 -5.820312 2.71875 -9 2.71875 -13.15625 C 2.71875 -17.3125 3.644531 -20.523438 5.5 -22.796875 C 7.363281 -25.066406 10.101562 -26.21875 13.71875 -26.25 C 17.09375 -26.25 19.632812 -24.984375 21.34375 -22.453125 C 22.894531 -20.171875 23.671875 -16.945312 23.671875 -12.78125 L 23.671875 -11.96875 L 6.65625 -11.96875 C 6.90625 -7.195312 8.535156 -4.3125 11.546875 -3.3125 C 12.472656 -3.019531 13.6875 -2.875 15.1875 -2.875 C 16.6875 -2.875 18.53125 -3.285156 20.71875 -4.109375 Z M 19.640625 -15 C 19.453125 -17.582031 18.988281 -19.507812 18.25 -20.78125 C 16.945312 -22.914062 14.691406 -23.550781 11.484375 -22.6875 C 9.703125 -22.21875 8.367188 -21.050781 7.484375 -19.1875 C 6.960938 -18.082031 6.6875 -16.6875 6.65625 -15 Z M 19.640625 -15 "/></g></g></g><g fill="#c18845" fill-opacity="1"><g transform="translate(291.882623, 352.584396)"><g><path d="M 18.21875 -21.9375 C 16.46875 -22.550781 14.554688 -22.859375 12.484375 -22.859375 C 10.566406 -22.859375 9.238281 -22.171875 8.5 -20.796875 C 8.269531 -20.398438 8.125 -19.894531 8.0625 -19.28125 C 8.007812 -18.675781 8.097656 -18.109375 8.328125 -17.578125 C 8.554688 -17.046875 8.894531 -16.582031 9.34375 -16.1875 C 10.050781 -15.539062 10.972656 -14.992188 12.109375 -14.546875 C 13.242188 -14.097656 14.097656 -13.742188 14.671875 -13.484375 C 15.242188 -13.234375 15.789062 -12.953125 16.3125 -12.640625 C 16.84375 -12.328125 17.332031 -11.96875 17.78125 -11.5625 C 18.238281 -11.164062 18.632812 -10.710938 18.96875 -10.203125 C 19.664062 -9.117188 19.992188 -7.882812 19.953125 -6.5 C 19.921875 -5.113281 19.660156 -3.992188 19.171875 -3.140625 C 18.691406 -2.285156 18.039062 -1.597656 17.21875 -1.078125 C 15.675781 -0.0546875 13.535156 0.453125 10.796875 0.453125 C 8.078125 0.453125 5.425781 -0.0390625 2.84375 -1.03125 L 3.515625 -4.421875 C 5.890625 -3.472656 8.347656 -2.96875 10.890625 -2.90625 C 13.316406 -2.820312 14.878906 -3.453125 15.578125 -4.796875 C 16.117188 -5.816406 16.164062 -6.832031 15.71875 -7.84375 C 15.289062 -8.757812 14.453125 -9.535156 13.203125 -10.171875 C 12.609375 -10.484375 11.929688 -10.789062 11.171875 -11.09375 C 10.421875 -11.40625 9.613281 -11.769531 8.75 -12.1875 C 7.894531 -12.613281 7.113281 -13.128906 6.40625 -13.734375 C 4.84375 -15.128906 4.0625 -16.929688 4.0625 -19.140625 L 4.0625 -19.484375 C 4.0625 -20.617188 4.335938 -21.625 4.890625 -22.5 C 5.441406 -23.375 6.113281 -24.078125 6.90625 -24.609375 C 8.425781 -25.640625 10.304688 -26.1875 12.546875 -26.25 C 14.804688 -26.25 16.953125 -25.921875 18.984375 -25.265625 Z M 18.21875 -21.9375 "/></g></g></g><g fill="#c18845" fill-opacity="1"><g transform="translate(321.72115, 352.584396)"><g><path d="M 18 -0.78125 C 15.863281 0.0390625 13.742188 0.453125 11.640625 0.453125 C 9.554688 0.421875 8.035156 -0.0351562 7.078125 -0.921875 C 6.003906 -1.898438 5.46875 -3.535156 5.46875 -5.828125 C 5.46875 -5.972656 5.46875 -6.117188 5.46875 -6.265625 C 5.46875 -6.421875 5.472656 -6.582031 5.484375 -6.75 L 5.609375 -22.78125 L 1.390625 -22.78125 L 1.5 -25.9375 L 5.765625 -25.9375 C 5.765625 -28.425781 5.671875 -30.210938 5.484375 -31.296875 L 9.34375 -31.921875 L 9.5 -25.9375 L 16.59375 -25.9375 L 16.59375 -22.78125 L 9.4375 -22.78125 L 9.34375 -7 C 9.28125 -5.488281 9.414062 -4.492188 9.75 -4.015625 C 10.082031 -3.535156 10.453125 -3.226562 10.859375 -3.09375 C 11.273438 -2.96875 11.941406 -2.90625 12.859375 -2.90625 C 13.773438 -2.90625 15.265625 -3.25 17.328125 -3.9375 Z M 18 -0.78125 "/></g></g></g><path fill="#e3cd8b" d="M 99.882812 222.554688 C 120.785156 228.660156 140.90625 236.71875 160.242188 246.734375 C 179.582031 256.75 197.773438 268.53125 214.820312 282.078125 C 211.371094 282.773438 207.902344 283.332031 204.40625 283.753906 C 200.914062 284.175781 197.410156 284.457031 193.890625 284.601562 C 190.375 284.746094 186.859375 284.75 183.34375 284.613281 C 179.828125 284.480469 176.320312 284.207031 172.824219 283.792969 C 169.332031 283.378906 165.859375 282.832031 162.40625 282.144531 C 158.957031 281.457031 155.535156 280.632812 152.152344 279.671875 C 148.765625 278.714844 145.421875 277.625 142.121094 276.402344 C 138.820312 275.179688 135.574219 273.828125 132.382812 272.347656 C 129.191406 270.867188 126.0625 269.261719 122.996094 267.535156 C 119.929688 265.804688 116.9375 263.957031 114.019531 261.992188 C 111.097656 260.027344 108.261719 257.949219 105.507812 255.761719 C 102.753906 253.570312 100.089844 251.277344 97.515625 248.875 C 94.941406 246.472656 92.46875 243.976562 90.09375 241.378906 C 87.71875 238.78125 85.449219 236.09375 83.289062 233.316406 C 81.125 230.542969 79.078125 227.683594 77.140625 224.746094 C 75.207031 221.804688 73.390625 218.796875 71.691406 215.714844 C 80.394531 217.417969 89.855469 219.652344 99.882812 222.554688 Z M 99.882812 222.554688 " fill-opacity="1" fill-rule="nonzero"/><path fill="#f0be86" d="M 101.984375 213.949219 C 97.558594 212.664062 93.253906 211.519531 89.074219 210.5 C 99.714844 210.808594 111.273438 211.492188 123.429688 212.746094 C 164.34375 216.976562 218.972656 228.539062 267.71875 258.496094 C 261.386719 263.207031 254.6875 267.320312 247.621094 270.839844 C 240.554688 274.355469 233.234375 277.21875 225.65625 279.429688 C 212.40625 268.449219 198.410156 258.519531 183.671875 249.632812 C 158.003906 234.167969 130.773438 222.273438 101.984375 213.949219 Z M 101.984375 213.949219 " fill-opacity="1" fill-rule="nonzero"/><path fill="#c18845" d="M 300.835938 222.808594 C 293.722656 234.015625 285.136719 243.941406 275.070312 252.589844 C 256.820312 241.121094 237.546875 231.761719 217.25 224.511719 C 188.894531 214.265625 157.550781 207.328125 124.101562 203.894531 C 109.617188 202.402344 95.921875 201.707031 83.601562 201.507812 C 98.480469 197.535156 113.578125 194.714844 128.894531 193.054688 C 170.433594 188.507812 232.308594 190.597656 300.835938 222.808594 Z M 300.835938 222.808594 " fill-opacity="1" fill-rule="nonzero"/><g clip-path="url(#895cc24f4b)"><path fill="#5d7052" d="M 321.453125 151.625 C 321.460938 157.148438 321.125 162.652344 320.445312 168.132812 C 319.765625 173.617188 318.746094 179.035156 317.390625 184.390625 C 316.03125 189.746094 314.347656 194.996094 312.332031 200.136719 C 310.316406 205.28125 307.992188 210.28125 305.351562 215.132812 C 277.722656 201.945312 248.839844 192.652344 218.703125 187.253906 C 211.386719 185.960938 204.046875 184.929688 196.691406 184.15625 C 196.214844 175.789062 196.945312 167.527344 198.886719 159.375 C 199.339844 159.710938 199.8125 160.023438 200.300781 160.3125 C 200.785156 160.597656 201.285156 160.863281 201.800781 161.101562 C 202.3125 161.339844 202.835938 161.554688 203.371094 161.738281 C 203.90625 161.925781 204.449219 162.085938 205 162.21875 C 205.550781 162.351562 206.105469 162.457031 206.664062 162.53125 C 207.226562 162.609375 207.789062 162.660156 208.355469 162.679688 C 208.921875 162.699219 209.484375 162.695312 210.050781 162.65625 C 210.617188 162.621094 211.175781 162.558594 211.734375 162.46875 C 212.292969 162.375 212.847656 162.257812 213.394531 162.113281 C 213.941406 161.964844 214.480469 161.792969 215.007812 161.59375 C 215.539062 161.390625 216.054688 161.167969 216.5625 160.914062 C 217.070312 160.664062 217.5625 160.386719 218.042969 160.085938 C 218.523438 159.785156 218.984375 159.460938 219.433594 159.113281 C 219.878906 158.765625 220.308594 158.398438 220.71875 158.007812 C 221.128906 157.621094 221.519531 157.210938 221.890625 156.78125 C 222.257812 156.351562 222.605469 155.90625 222.933594 155.445312 C 222.082031 154.757812 221.171875 154.15625 220.207031 153.644531 C 219.242188 153.128906 218.238281 152.714844 217.191406 152.394531 C 216.144531 152.074219 215.078125 151.859375 213.992188 151.746094 C 212.902344 151.632812 211.816406 151.621094 210.726562 151.71875 C 209.636719 151.8125 208.566406 152.011719 207.515625 152.3125 C 206.464844 152.613281 205.453125 153.015625 204.476562 153.511719 C 203.503906 154.007812 202.585938 154.59375 201.722656 155.265625 C 200.863281 155.9375 200.070312 156.6875 199.355469 157.511719 C 200.585938 152.785156 202.195312 148.1875 204.183594 143.722656 C 204.636719 144.066406 205.109375 144.390625 205.597656 144.6875 C 206.085938 144.984375 206.585938 145.257812 207.101562 145.507812 C 207.617188 145.753906 208.140625 145.976562 208.679688 146.171875 C 209.21875 146.367188 209.761719 146.535156 210.316406 146.675781 C 210.871094 146.8125 211.429688 146.925781 211.996094 147.011719 C 212.5625 147.09375 213.128906 147.148438 213.703125 147.175781 C 214.273438 147.203125 214.84375 147.199219 215.414062 147.171875 C 215.984375 147.140625 216.554688 147.082031 217.117188 146.992188 C 217.683594 146.90625 218.242188 146.789062 218.796875 146.644531 C 219.347656 146.503906 219.894531 146.332031 220.429688 146.132812 C 220.964844 145.933594 221.492188 145.710938 222.003906 145.457031 C 222.519531 145.207031 223.015625 144.929688 223.503906 144.628906 C 223.988281 144.328125 224.457031 144.003906 224.910156 143.652344 C 225.363281 143.304688 225.796875 142.933594 226.214844 142.542969 C 226.628906 142.148438 227.027344 141.738281 227.398438 141.304688 C 227.773438 140.875 228.125 140.421875 228.457031 139.957031 C 227.613281 139.277344 226.71875 138.679688 225.761719 138.171875 C 224.808594 137.660156 223.816406 137.246094 222.78125 136.925781 C 221.75 136.605469 220.695312 136.382812 219.621094 136.265625 C 218.542969 136.144531 217.46875 136.125 216.390625 136.210938 C 215.3125 136.296875 214.25 136.480469 213.207031 136.769531 C 212.164062 137.054688 211.15625 137.4375 210.1875 137.917969 C 209.21875 138.394531 208.300781 138.960938 207.4375 139.613281 C 206.574219 140.265625 205.78125 140.992188 205.058594 141.796875 C 207.160156 137.363281 209.570312 133.105469 212.292969 129.019531 C 212.71875 129.390625 213.164062 129.738281 213.625 130.0625 C 214.085938 130.390625 214.5625 130.691406 215.054688 130.972656 C 215.546875 131.25 216.050781 131.503906 216.566406 131.734375 C 217.082031 131.960938 217.609375 132.164062 218.148438 132.339844 C 218.683594 132.515625 219.230469 132.667969 219.78125 132.789062 C 220.332031 132.910156 220.890625 133.003906 221.449219 133.070312 C 222.011719 133.140625 222.574219 133.179688 223.140625 133.1875 C 223.703125 133.199219 224.269531 133.183594 224.832031 133.136719 C 225.394531 133.09375 225.957031 133.019531 226.511719 132.917969 C 227.066406 132.816406 227.617188 132.691406 228.160156 132.535156 C 228.703125 132.378906 229.238281 132.195312 229.765625 131.988281 C 230.289062 131.78125 230.804688 131.546875 231.304688 131.285156 C 231.808594 131.027344 232.296875 130.742188 232.769531 130.433594 C 233.242188 130.125 233.699219 129.796875 234.140625 129.441406 C 234.582031 129.089844 235.003906 128.714844 235.410156 128.320312 C 235.8125 127.921875 236.195312 127.507812 236.558594 127.074219 C 235.835938 126.382812 235.058594 125.757812 234.226562 125.203125 C 233.398438 124.644531 232.523438 124.164062 231.605469 123.761719 C 230.691406 123.363281 229.746094 123.042969 228.773438 122.804688 C 227.800781 122.570312 226.816406 122.421875 225.820312 122.359375 C 224.820312 122.296875 223.824219 122.320312 222.828125 122.433594 C 221.835938 122.546875 220.859375 122.746094 219.898438 123.027344 C 218.941406 123.3125 218.015625 123.679688 217.121094 124.128906 C 216.226562 124.574219 215.375 125.097656 214.574219 125.695312 C 217.488281 121.65625 220.652344 117.824219 224.070312 114.199219 C 224.632812 114.992188 225.265625 115.71875 225.972656 116.386719 C 226.679688 117.054688 227.441406 117.644531 228.265625 118.160156 C 229.089844 118.671875 229.953125 119.101562 230.863281 119.449219 C 231.769531 119.792969 232.703125 120.042969 233.660156 120.203125 C 234.617188 120.363281 235.582031 120.429688 236.550781 120.398438 C 237.523438 120.371094 238.480469 120.246094 239.425781 120.023438 C 240.371094 119.804688 241.285156 119.496094 242.171875 119.097656 C 243.054688 118.695312 243.890625 118.214844 244.679688 117.648438 C 244.222656 116.90625 243.699219 116.207031 243.117188 115.558594 C 242.53125 114.90625 241.894531 114.3125 241.207031 113.773438 C 240.515625 113.238281 239.785156 112.765625 239.011719 112.355469 C 238.238281 111.949219 237.433594 111.613281 236.601562 111.351562 C 235.765625 111.085938 234.917969 110.898438 234.050781 110.785156 C 233.183594 110.671875 232.3125 110.636719 231.4375 110.679688 C 230.566406 110.71875 229.703125 110.839844 228.851562 111.035156 C 228 111.230469 227.171875 111.5 226.367188 111.84375 C 229.464844 108.722656 232.742188 105.800781 236.199219 103.085938 C 236.203125 103.101562 236.203125 103.117188 236.199219 103.132812 C 236.757812 103.300781 237.324219 103.4375 237.894531 103.546875 C 238.46875 103.652344 239.042969 103.730469 239.625 103.78125 C 240.203125 103.832031 240.785156 103.851562 241.367188 103.839844 C 241.949219 103.828125 242.53125 103.789062 243.109375 103.71875 C 243.6875 103.652344 244.261719 103.550781 244.828125 103.421875 C 245.398438 103.296875 245.957031 103.136719 246.507812 102.953125 C 247.0625 102.765625 247.601562 102.554688 248.132812 102.3125 C 248.664062 102.070312 249.179688 101.804688 249.683594 101.507812 C 250.183594 101.214844 250.671875 100.898438 251.140625 100.550781 C 251.613281 100.207031 252.0625 99.84375 252.496094 99.453125 C 252.929688 99.0625 253.339844 98.652344 253.730469 98.21875 C 254.121094 97.785156 254.488281 97.335938 254.832031 96.867188 C 255.175781 96.394531 255.496094 95.910156 255.789062 95.40625 C 256.085938 94.902344 256.351562 94.386719 256.59375 93.859375 C 256.835938 93.328125 257.050781 92.785156 257.234375 92.234375 C 257.421875 91.683594 257.578125 91.125 257.707031 90.554688 C 257.160156 90.390625 256.609375 90.253906 256.050781 90.148438 C 255.488281 90.039062 254.925781 89.960938 254.359375 89.90625 C 253.792969 89.855469 253.222656 89.832031 252.652344 89.839844 C 252.082031 89.84375 251.515625 89.878906 250.949219 89.941406 C 250.382812 90.003906 249.820312 90.09375 249.261719 90.210938 C 248.707031 90.332031 248.15625 90.476562 247.613281 90.648438 C 247.070312 90.824219 246.539062 91.023438 246.015625 91.25 C 245.492188 91.480469 244.984375 91.730469 244.484375 92.011719 C 243.988281 92.289062 243.507812 92.589844 243.039062 92.917969 C 242.570312 93.242188 242.121094 93.59375 241.691406 93.964844 C 241.257812 94.335938 240.847656 94.730469 240.453125 95.140625 C 240.0625 95.554688 239.691406 95.988281 239.339844 96.4375 C 238.992188 96.886719 238.664062 97.351562 238.363281 97.835938 C 238.058594 98.320312 237.78125 98.816406 237.53125 99.328125 C 237.277344 99.835938 237.050781 100.359375 236.851562 100.894531 C 236.648438 101.425781 236.476562 101.96875 236.332031 102.519531 C 233.527344 104.074219 230.875 105.683594 228.378906 107.347656 C 228.894531 106.703125 229.351562 106.023438 229.753906 105.304688 C 230.15625 104.585938 230.5 103.835938 230.78125 103.0625 C 231.058594 102.289062 231.277344 101.496094 231.425781 100.6875 C 231.578125 99.875 231.660156 99.058594 231.679688 98.234375 C 231.695312 97.410156 231.644531 96.59375 231.527344 95.777344 C 231.410156 94.960938 231.226562 94.160156 230.980469 93.375 C 230.730469 92.589844 230.421875 91.828125 230.046875 91.09375 C 229.675781 90.359375 229.246094 89.660156 228.757812 88.996094 C 228.332031 89.265625 227.921875 89.554688 227.527344 89.867188 C 227.132812 90.175781 226.753906 90.503906 226.390625 90.855469 C 226.027344 91.203125 225.683594 91.566406 225.355469 91.949219 C 225.027344 92.332031 224.722656 92.730469 224.4375 93.144531 C 224.148438 93.558594 223.882812 93.984375 223.640625 94.425781 C 223.394531 94.863281 223.175781 95.316406 222.976562 95.777344 C 222.777344 96.238281 222.601562 96.710938 222.449219 97.191406 C 222.296875 97.667969 222.171875 98.15625 222.066406 98.648438 C 221.964844 99.140625 221.886719 99.636719 221.832031 100.136719 C 221.777344 100.636719 221.75 101.136719 221.746094 101.640625 C 221.742188 102.144531 221.765625 102.644531 221.8125 103.148438 C 221.859375 103.648438 221.929688 104.144531 222.027344 104.636719 C 222.121094 105.132812 222.242188 105.621094 222.386719 106.101562 C 222.53125 106.582031 222.703125 107.054688 222.894531 107.519531 C 223.085938 107.984375 223.300781 108.441406 223.539062 108.882812 C 223.777344 109.324219 224.035156 109.757812 224.316406 110.171875 C 221.492188 112.242188 218.882812 114.367188 216.46875 116.53125 C 216.835938 115.78125 217.136719 115.007812 217.375 114.210938 C 217.613281 113.414062 217.78125 112.601562 217.886719 111.773438 C 217.988281 110.949219 218.023438 110.117188 217.992188 109.285156 C 217.957031 108.453125 217.855469 107.628906 217.6875 106.816406 C 217.515625 106 217.28125 105.203125 216.980469 104.425781 C 216.679688 103.652344 216.316406 102.902344 215.894531 102.1875 C 215.46875 101.46875 214.988281 100.792969 214.453125 100.15625 C 213.917969 99.519531 213.332031 98.929688 212.699219 98.390625 C 212.007812 99.101562 211.390625 99.875 210.851562 100.707031 C 210.3125 101.539062 209.859375 102.417969 209.492188 103.339844 C 209.125 104.265625 208.851562 105.214844 208.671875 106.191406 C 208.492188 107.167969 208.410156 108.152344 208.425781 109.144531 C 208.441406 110.136719 208.554688 111.117188 208.761719 112.089844 C 208.972656 113.058594 209.273438 114 209.667969 114.914062 C 210.0625 115.824219 210.539062 116.6875 211.105469 117.503906 C 211.671875 118.320312 212.308594 119.074219 213.023438 119.765625 C 210.695312 122.078125 208.503906 124.507812 206.445312 127.0625 C 206.539062 126.292969 206.574219 125.527344 206.554688 124.753906 C 206.53125 123.980469 206.449219 123.214844 206.308594 122.457031 C 206.167969 121.695312 205.972656 120.953125 205.71875 120.222656 C 205.464844 119.492188 205.15625 118.785156 204.792969 118.105469 C 204.429688 117.421875 204.015625 116.773438 203.554688 116.152344 C 203.09375 115.535156 202.585938 114.953125 202.035156 114.414062 C 201.484375 113.871094 200.894531 113.375 200.265625 112.925781 C 199.640625 112.476562 198.980469 112.074219 198.292969 111.726562 C 197.804688 112.542969 197.398438 113.402344 197.070312 114.300781 C 196.746094 115.195312 196.507812 116.117188 196.355469 117.058594 C 196.207031 118 196.144531 118.945312 196.171875 119.898438 C 196.203125 120.855469 196.320312 121.796875 196.527344 122.726562 C 196.734375 123.660156 197.027344 124.5625 197.402344 125.4375 C 197.78125 126.3125 198.238281 127.144531 198.777344 127.933594 C 199.3125 128.722656 199.917969 129.453125 200.59375 130.128906 C 201.265625 130.804688 202 131.40625 202.789062 131.945312 C 201.070312 134.425781 199.535156 136.898438 198.183594 139.355469 C 198.179688 137.960938 197.980469 136.59375 197.589844 135.253906 C 196.375 131.074219 194.679688 129.929688 191.078125 128.101562 C 189.011719 131.550781 187.328125 135.585938 188.535156 139.761719 C 189.589844 143.410156 191.753906 144.507812 194.742188 146.410156 C 192.074219 152.5625 190.167969 158.941406 189.023438 165.546875 C 187.78125 155.824219 185.210938 146.464844 181.308594 137.472656 C 181.808594 137.152344 182.289062 136.808594 182.757812 136.441406 C 183.222656 136.074219 183.671875 135.683594 184.101562 135.273438 C 184.527344 134.863281 184.9375 134.433594 185.324219 133.984375 C 185.710938 133.535156 186.078125 133.066406 186.421875 132.582031 C 186.761719 132.097656 187.082031 131.597656 187.375 131.082031 C 187.671875 130.566406 187.941406 130.035156 188.183594 129.496094 C 188.425781 128.953125 188.644531 128.402344 188.835938 127.839844 C 189.027344 127.277344 189.1875 126.707031 189.324219 126.128906 C 189.460938 125.550781 189.570312 124.96875 189.648438 124.378906 C 189.730469 123.792969 189.78125 123.199219 189.804688 122.605469 C 189.828125 122.015625 189.820312 121.421875 189.785156 120.828125 C 189.753906 120.234375 189.691406 119.644531 189.601562 119.058594 C 189.507812 118.472656 189.390625 117.890625 189.246094 117.316406 C 189.097656 116.738281 188.925781 116.171875 188.722656 115.613281 C 188.523438 115.054688 188.292969 114.507812 188.039062 113.972656 C 187.785156 113.433594 187.507812 112.910156 187.203125 112.402344 C 185.6875 113.171875 184.304688 114.136719 183.050781 115.289062 C 181.800781 116.4375 180.726562 117.738281 179.832031 119.1875 C 178.9375 120.632812 178.257812 122.175781 177.785156 123.808594 C 177.316406 125.445312 177.074219 127.113281 177.058594 128.8125 C 175.335938 125.679688 173.449219 122.644531 171.40625 119.710938 C 172.375 119.054688 173.277344 118.3125 174.109375 117.484375 C 174.9375 116.660156 175.683594 115.761719 176.34375 114.792969 C 177 113.824219 177.5625 112.800781 178.027344 111.726562 C 178.492188 110.648438 178.855469 109.539062 179.109375 108.398438 C 179.363281 107.253906 179.507812 106.09375 179.539062 104.921875 C 179.574219 103.753906 179.5 102.589844 179.3125 101.429688 C 179.125 100.273438 178.828125 99.144531 178.429688 98.046875 C 178.027344 96.945312 177.523438 95.890625 176.921875 94.886719 C 176.078125 95.3125 175.269531 95.804688 174.5 96.355469 C 173.730469 96.910156 173.003906 97.519531 172.328125 98.179688 C 171.652344 98.84375 171.03125 99.554688 170.460938 100.316406 C 169.894531 101.074219 169.390625 101.871094 168.945312 102.707031 C 168.5 103.546875 168.121094 104.410156 167.808594 105.304688 C 167.496094 106.199219 167.253906 107.113281 167.082031 108.046875 C 166.910156 108.976562 166.808594 109.917969 166.78125 110.867188 C 166.753906 111.8125 166.800781 112.757812 166.917969 113.695312 C 164.386719 110.5625 161.691406 107.574219 158.835938 104.734375 C 159.273438 104.308594 159.691406 103.867188 160.085938 103.402344 C 160.480469 102.941406 160.851562 102.457031 161.195312 101.957031 C 161.542969 101.457031 161.867188 100.941406 162.164062 100.410156 C 162.457031 99.878906 162.726562 99.332031 162.96875 98.773438 C 163.210938 98.214844 163.425781 97.644531 163.613281 97.066406 C 163.800781 96.488281 163.957031 95.898438 164.085938 95.304688 C 164.214844 94.707031 164.3125 94.109375 164.382812 93.503906 C 164.449219 92.898438 164.488281 92.292969 164.5 91.683594 C 164.507812 91.074219 164.488281 90.464844 164.4375 89.859375 C 164.386719 89.253906 164.304688 88.648438 164.195312 88.050781 C 164.085938 87.453125 163.945312 86.859375 163.777344 86.273438 C 163.609375 85.691406 163.414062 85.113281 163.1875 84.550781 C 162.960938 83.984375 162.710938 83.429688 162.429688 82.890625 C 162.148438 82.347656 161.84375 81.824219 161.511719 81.3125 C 161.179688 80.800781 160.824219 80.308594 160.441406 79.832031 C 160.0625 79.359375 159.660156 78.902344 159.234375 78.46875 C 158.457031 79.128906 157.738281 79.851562 157.078125 80.632812 C 156.421875 81.417969 155.832031 82.246094 155.308594 83.125 C 154.789062 84.007812 154.34375 84.921875 153.972656 85.875 C 153.601562 86.828125 153.316406 87.804688 153.105469 88.808594 C 152.898438 89.808594 152.773438 90.820312 152.734375 91.839844 C 152.691406 92.863281 152.734375 93.882812 152.863281 94.894531 C 152.992188 95.910156 153.203125 96.90625 153.496094 97.886719 C 153.785156 98.867188 154.15625 99.816406 154.605469 100.734375 C 151.648438 98.070312 148.429688 95.46875 144.953125 92.921875 C 145.296875 92.40625 145.617188 91.878906 145.90625 91.335938 C 146.199219 90.792969 146.464844 90.234375 146.699219 89.664062 C 146.9375 89.09375 147.144531 88.511719 147.320312 87.921875 C 147.5 87.332031 147.648438 86.734375 147.765625 86.125 C 147.886719 85.519531 147.972656 84.910156 148.03125 84.296875 C 148.085938 83.679688 148.113281 83.066406 148.109375 82.449219 C 148.105469 81.828125 148.070312 81.214844 148.003906 80.601562 C 147.9375 79.988281 147.839844 79.378906 147.714844 78.773438 C 147.589844 78.167969 147.429688 77.574219 147.246094 76.984375 C 147.058594 76.394531 146.84375 75.816406 146.597656 75.25 C 146.355469 74.683594 146.082031 74.128906 145.785156 73.589844 C 145.484375 73.050781 145.15625 72.527344 144.804688 72.019531 C 144.453125 71.511719 144.078125 71.023438 143.675781 70.554688 C 143.277344 70.085938 142.851562 69.636719 142.40625 69.207031 C 141.960938 68.78125 141.496094 68.378906 141.011719 67.996094 C 140.523438 67.617188 140.019531 67.261719 139.5 66.929688 C 138.898438 67.746094 138.371094 68.605469 137.914062 69.507812 C 137.457031 70.410156 137.074219 71.34375 136.769531 72.308594 C 136.464844 73.269531 136.238281 74.253906 136.097656 75.257812 C 135.953125 76.257812 135.890625 77.265625 135.914062 78.273438 C 135.933594 79.285156 136.039062 80.289062 136.222656 81.285156 C 136.410156 82.277344 136.675781 83.25 137.019531 84.203125 C 137.367188 85.152344 137.785156 86.070312 138.28125 86.953125 C 138.777344 87.832031 139.339844 88.667969 139.972656 89.457031 C 136.902344 87.421875 133.644531 85.453125 130.203125 83.550781 C 130.023438 82.875 129.8125 82.210938 129.566406 81.554688 C 129.320312 80.902344 129.042969 80.261719 128.730469 79.636719 C 128.421875 79.007812 128.082031 78.398438 127.710938 77.808594 C 127.339844 77.214844 126.941406 76.644531 126.511719 76.09375 C 126.085938 75.539062 125.628906 75.011719 125.148438 74.503906 C 124.667969 73.996094 124.160156 73.515625 123.632812 73.0625 C 123.101562 72.605469 122.550781 72.175781 121.980469 71.777344 C 121.40625 71.375 120.816406 71.003906 120.207031 70.664062 C 119.597656 70.320312 118.972656 70.011719 118.332031 69.730469 C 117.691406 69.453125 117.039062 69.207031 116.375 68.992188 C 115.710938 68.777344 115.035156 68.597656 114.351562 68.453125 C 113.667969 68.304688 112.980469 68.195312 112.285156 68.117188 C 111.589844 68.039062 110.894531 68 110.195312 67.992188 C 109.496094 67.984375 108.800781 68.011719 108.105469 68.074219 C 107.410156 68.136719 106.71875 68.234375 106.03125 68.363281 C 105.347656 68.496094 104.667969 68.660156 104 68.859375 C 104.15625 69.558594 104.347656 70.25 104.574219 70.929688 C 104.800781 71.609375 105.0625 72.273438 105.359375 72.925781 C 105.65625 73.578125 105.984375 74.214844 106.347656 74.835938 C 106.707031 75.453125 107.097656 76.050781 107.523438 76.628906 C 107.945312 77.207031 108.394531 77.765625 108.875 78.296875 C 109.355469 78.828125 109.859375 79.335938 110.390625 79.816406 C 110.925781 80.296875 111.480469 80.746094 112.058594 81.171875 C 112.636719 81.59375 113.234375 81.988281 113.851562 82.347656 C 114.46875 82.710938 115.105469 83.039062 115.757812 83.335938 C 116.410156 83.632812 117.074219 83.894531 117.753906 84.125 C 118.433594 84.351562 119.125 84.546875 119.820312 84.703125 C 120.519531 84.859375 121.226562 84.984375 121.9375 85.066406 C 122.648438 85.152344 123.363281 85.203125 124.078125 85.214844 C 124.796875 85.226562 125.511719 85.199219 126.226562 85.140625 C 126.9375 85.078125 127.648438 84.980469 128.351562 84.84375 C 129.054688 84.710938 129.75 84.539062 130.4375 84.335938 L 130.4375 84.273438 C 134.683594 87.605469 138.707031 91.183594 142.503906 95.015625 C 141.519531 94.597656 140.5 94.269531 139.457031 94.03125 C 138.410156 93.792969 137.351562 93.648438 136.277344 93.597656 C 135.207031 93.546875 134.140625 93.589844 133.078125 93.730469 C 132.011719 93.871094 130.96875 94.101562 129.949219 94.425781 C 128.925781 94.75 127.9375 95.164062 126.988281 95.664062 C 126.042969 96.164062 125.144531 96.742188 124.296875 97.402344 C 123.453125 98.0625 122.667969 98.789062 121.953125 99.589844 C 121.238281 100.386719 120.597656 101.242188 120.03125 102.152344 C 120.515625 102.5 121.011719 102.820312 121.527344 103.121094 C 122.042969 103.417969 122.570312 103.6875 123.109375 103.933594 C 123.652344 104.179688 124.203125 104.398438 124.765625 104.589844 C 125.328125 104.777344 125.902344 104.941406 126.480469 105.078125 C 127.058594 105.210938 127.640625 105.316406 128.230469 105.394531 C 128.820312 105.472656 129.414062 105.519531 130.007812 105.539062 C 130.601562 105.558594 131.195312 105.546875 131.785156 105.507812 C 132.378906 105.46875 132.96875 105.398438 133.554688 105.300781 C 134.140625 105.203125 134.722656 105.078125 135.296875 104.921875 C 135.871094 104.765625 136.433594 104.582031 136.988281 104.375 C 137.546875 104.164062 138.089844 103.925781 138.621094 103.660156 C 139.152344 103.398438 139.671875 103.105469 140.175781 102.792969 C 140.679688 102.476562 141.167969 102.136719 141.636719 101.773438 C 142.105469 101.410156 142.558594 101.023438 142.992188 100.617188 C 143.421875 100.210938 143.835938 99.78125 144.222656 99.332031 C 144.613281 98.882812 144.980469 98.417969 145.324219 97.933594 C 149.519531 102.386719 153.40625 107.089844 156.988281 112.050781 C 156.003906 111.316406 154.960938 110.671875 153.863281 110.121094 C 152.765625 109.570312 151.628906 109.117188 150.453125 108.765625 C 149.277344 108.417969 148.078125 108.171875 146.859375 108.03125 C 145.640625 107.890625 144.417969 107.859375 143.191406 107.933594 C 141.964844 108.007812 140.757812 108.191406 139.5625 108.476562 C 138.371094 108.765625 137.210938 109.15625 136.085938 109.648438 C 134.960938 110.140625 133.886719 110.726562 132.867188 111.410156 C 131.84375 112.089844 130.890625 112.855469 130.003906 113.703125 C 130.449219 114.238281 130.917969 114.746094 131.414062 115.230469 C 131.910156 115.714844 132.425781 116.175781 132.96875 116.609375 C 133.507812 117.042969 134.070312 117.449219 134.652344 117.828125 C 135.234375 118.207031 135.832031 118.554688 136.449219 118.871094 C 137.0625 119.191406 137.695312 119.480469 138.339844 119.734375 C 138.984375 119.992188 139.640625 120.214844 140.304688 120.40625 C 140.972656 120.59375 141.648438 120.753906 142.328125 120.875 C 143.011719 121 143.699219 121.089844 144.390625 121.144531 C 145.082031 121.199219 145.773438 121.222656 146.46875 121.207031 C 147.160156 121.195312 147.851562 121.148438 148.539062 121.066406 C 149.230469 120.984375 149.914062 120.867188 150.589844 120.714844 C 151.265625 120.566406 151.933594 120.382812 152.59375 120.167969 C 153.253906 119.949219 153.898438 119.703125 154.535156 119.421875 C 155.167969 119.140625 155.785156 118.828125 156.390625 118.488281 C 156.992188 118.144531 157.578125 117.773438 158.144531 117.371094 C 158.710938 116.972656 159.253906 116.542969 159.777344 116.089844 C 163.121094 121.101562 166.082031 126.332031 168.660156 131.777344 C 168.21875 131.285156 167.753906 130.816406 167.265625 130.367188 C 166.777344 129.917969 166.269531 129.496094 165.742188 129.097656 C 165.214844 128.695312 164.667969 128.324219 164.105469 127.976562 C 163.542969 127.628906 162.964844 127.304688 162.371094 127.011719 C 161.773438 126.71875 161.167969 126.457031 160.550781 126.222656 C 159.929688 125.984375 159.300781 125.78125 158.664062 125.605469 C 158.027344 125.429688 157.378906 125.285156 156.726562 125.167969 C 156.074219 125.054688 155.417969 124.972656 154.761719 124.917969 C 154.101562 124.867188 153.4375 124.847656 152.777344 124.855469 C 152.113281 124.867188 151.453125 124.910156 150.796875 124.980469 C 150.136719 125.054688 149.484375 125.160156 148.835938 125.296875 C 148.1875 125.429688 147.546875 125.597656 146.914062 125.792969 C 146.285156 125.988281 145.660156 126.214844 145.050781 126.46875 C 144.441406 126.722656 143.84375 127.007812 143.257812 127.320312 C 142.671875 127.632812 142.105469 127.96875 141.554688 128.335938 C 141 128.703125 140.46875 129.09375 139.953125 129.507812 C 140.355469 130.082031 140.789062 130.636719 141.246094 131.167969 C 141.707031 131.695312 142.191406 132.203125 142.699219 132.683594 C 143.210938 133.167969 143.742188 133.621094 144.300781 134.050781 C 144.855469 134.476562 145.429688 134.878906 146.027344 135.25 C 146.625 135.617188 147.238281 135.957031 147.867188 136.265625 C 148.496094 136.574219 149.140625 136.851562 149.796875 137.09375 C 150.457031 137.339844 151.125 137.550781 151.804688 137.726562 C 152.484375 137.902344 153.167969 138.042969 153.863281 138.152344 C 154.554688 138.261719 155.253906 138.332031 155.953125 138.371094 C 156.65625 138.40625 157.355469 138.410156 158.054688 138.375 C 158.757812 138.34375 159.453125 138.273438 160.148438 138.171875 C 160.84375 138.070312 161.53125 137.929688 162.210938 137.757812 C 162.890625 137.585938 163.558594 137.378906 164.21875 137.140625 C 164.878906 136.902344 165.523438 136.628906 166.15625 136.324219 C 166.789062 136.019531 167.402344 135.683594 168 135.316406 C 168.601562 134.949219 169.179688 134.554688 169.738281 134.128906 C 172.179688 139.617188 174.164062 145.265625 175.695312 151.070312 C 175.253906 150.566406 174.792969 150.085938 174.304688 149.625 C 173.816406 149.164062 173.3125 148.726562 172.78125 148.316406 C 172.253906 147.902344 171.707031 147.519531 171.140625 147.160156 C 170.578125 146.800781 169.996094 146.46875 169.398438 146.164062 C 168.800781 145.859375 168.191406 145.585938 167.566406 145.339844 C 166.941406 145.097656 166.308594 144.882812 165.664062 144.699219 C 165.019531 144.515625 164.371094 144.359375 163.710938 144.238281 C 163.050781 144.117188 162.390625 144.027344 161.722656 143.96875 C 161.054688 143.910156 160.386719 143.886719 159.714844 143.890625 C 159.046875 143.898438 158.378906 143.9375 157.710938 144.007812 C 157.046875 144.078125 156.382812 144.179688 155.726562 144.3125 C 155.070312 144.445312 154.421875 144.613281 153.78125 144.808594 C 153.140625 145.003906 152.511719 145.230469 151.890625 145.484375 C 151.273438 145.742188 150.667969 146.027344 150.078125 146.34375 C 149.484375 146.65625 148.910156 147 148.351562 147.367188 C 147.792969 147.738281 147.253906 148.132812 146.730469 148.554688 C 147.132812 149.125 147.558594 149.671875 148.011719 150.199219 C 148.464844 150.722656 148.945312 151.226562 149.449219 151.703125 C 149.953125 152.183594 150.476562 152.632812 151.027344 153.058594 C 151.574219 153.488281 152.144531 153.882812 152.734375 154.253906 C 153.320312 154.621094 153.925781 154.960938 154.550781 155.269531 C 155.171875 155.578125 155.808594 155.855469 156.457031 156.101562 C 157.105469 156.347656 157.769531 156.558594 158.4375 156.738281 C 159.109375 156.917969 159.789062 157.066406 160.472656 157.179688 C 161.160156 157.289062 161.847656 157.367188 162.542969 157.410156 C 163.234375 157.453125 163.929688 157.464844 164.625 157.4375 C 165.316406 157.414062 166.007812 157.351562 166.699219 157.257812 C 167.386719 157.164062 168.066406 157.035156 168.742188 156.871094 C 169.417969 156.710938 170.085938 156.511719 170.742188 156.285156 C 171.394531 156.054688 172.039062 155.792969 172.667969 155.5 C 173.300781 155.207031 173.914062 154.886719 174.511719 154.53125 C 175.109375 154.175781 175.6875 153.792969 176.246094 153.382812 C 178.554688 163.046875 179.472656 172.84375 179.003906 182.773438 C 161.820312 181.898438 144.671875 182.40625 127.570312 184.296875 C 105.765625 186.636719 84.460938 191.285156 63.664062 198.238281 C 60.878906 190.785156 58.78125 183.140625 57.371094 175.308594 C 55.960938 167.476562 55.261719 159.582031 55.273438 151.625 C 55.273438 78.121094 114.859375 18.535156 188.363281 18.535156 C 261.867188 18.535156 321.453125 78.121094 321.453125 151.625 Z M 321.453125 151.625 " fill-opacity="1" fill-rule="nonzero"/></g></svg>