<svg xmlns="http://www.w3.org/2000/svg" xmlns:xlink="http://www.w3.org/1999/xlink" width="500" zoomAndPan="magnify" viewBox="0 0 375 374.999991" height="500" preserveAspectRatio="xMidYMid meet" version="1.0"><defs><clipPath id="0fc099bee2"><path d="M 15.058594 9.222656 L 360.058594 9.222656 L 360.058594 354.222656 L 15.058594 354.222656 Z M 15.058594 9.222656 " clip-rule="nonzero"/></clipPath><clipPath id="e6fbf608ea"><path d="M 15.058594 9.222656 L 360 9.222656 L 360 264 L 15.058594 264 Z M 15.058594 9.222656 " clip-rule="nonzero"/></clipPath></defs><g clip-path="url(#0fc099bee2)"><path fill="#ffffff" d="M 187.558594 9.222656 C 92.292969 9.222656 15.0625 86.453125 15.0625 181.722656 C 15.0625 276.992188 92.292969 354.222656 187.558594 354.222656 C 282.824219 354.222656 360.054688 276.992188 360.054688 181.722656 C 360.054688 86.453125 282.824219 9.222656 187.558594 9.222656 " fill-opacity="1" fill-rule="nonzero"/></g><path fill="#e3cd8b" d="M 72.863281 273.394531 C 86.371094 277.335938 99.660156 281.921875 112.726562 287.152344 C 125.792969 292.378906 138.578125 298.226562 151.074219 304.691406 C 163.574219 311.15625 175.730469 318.210938 187.546875 325.851562 C 199.363281 333.496094 210.777344 341.691406 221.796875 350.4375 C 219.566406 350.886719 217.324219 351.292969 215.074219 351.65625 C 212.820312 352.015625 210.566406 352.335938 208.304688 352.605469 C 206.039062 352.878906 203.773438 353.105469 201.5 353.289062 C 199.230469 353.472656 196.957031 353.609375 194.679688 353.703125 C 192.402344 353.796875 190.121094 353.84375 187.84375 353.847656 C 185.5625 353.851562 183.285156 353.808594 181.007812 353.71875 C 178.730469 353.632812 176.457031 353.5 174.183594 353.324219 C 171.910156 353.144531 169.644531 352.925781 167.378906 352.65625 C 165.117188 352.390625 162.859375 352.078125 160.609375 351.722656 C 158.359375 351.367188 156.113281 350.964844 153.878906 350.519531 C 151.644531 350.078125 149.417969 349.585938 147.203125 349.054688 C 144.988281 348.523438 142.78125 347.945312 140.589844 347.324219 C 138.398438 346.707031 136.21875 346.042969 134.050781 345.335938 C 131.882812 344.628906 129.730469 343.882812 127.59375 343.089844 C 125.457031 342.296875 123.335938 341.464844 121.234375 340.589844 C 119.128906 339.714844 117.042969 338.800781 114.976562 337.839844 C 112.910156 336.882812 110.859375 335.886719 108.832031 334.847656 C 106.804688 333.808594 104.796875 332.730469 102.8125 331.613281 C 100.828125 330.496094 98.863281 329.335938 96.925781 328.140625 C 94.984375 326.945312 93.070312 325.714844 91.179688 324.441406 C 89.289062 323.171875 87.425781 321.863281 85.585938 320.519531 C 83.746094 319.171875 81.933594 317.792969 80.152344 316.375 C 78.367188 314.957031 76.613281 313.507812 74.886719 312.019531 C 73.160156 310.535156 71.460938 309.015625 69.796875 307.460938 C 68.128906 305.910156 66.496094 304.324219 64.890625 302.707031 C 63.289062 301.089844 61.71875 299.441406 60.179688 297.761719 C 58.640625 296.078125 57.136719 294.371094 55.667969 292.632812 C 54.195312 290.890625 52.761719 289.125 51.359375 287.328125 C 49.960938 285.53125 48.597656 283.707031 47.269531 281.859375 C 45.941406 280.007812 44.648438 278.132812 43.394531 276.230469 C 42.140625 274.332031 40.925781 272.40625 39.75 270.457031 C 38.570312 268.507812 37.433594 266.535156 36.332031 264.542969 C 47.609375 266.746094 59.871094 269.636719 72.863281 273.394531 Z M 72.863281 273.394531 " fill-opacity="1" fill-rule="nonzero"/><path fill="#f0be86" d="M 75.585938 262.257812 C 69.851562 260.597656 64.273438 259.117188 58.859375 257.792969 C 72.648438 258.195312 87.625 259.078125 103.375 260.703125 C 156.390625 266.175781 227.179688 281.140625 290.34375 319.914062 C 282.136719 326.011719 273.457031 331.339844 264.300781 335.890625 C 255.144531 340.441406 245.65625 344.148438 235.835938 347.011719 C 218.667969 332.796875 200.535156 319.945312 181.4375 308.445312 C 164.875 298.480469 147.738281 289.632812 130.019531 281.902344 C 112.304688 274.171875 94.160156 267.621094 75.585938 262.257812 Z M 75.585938 262.257812 " fill-opacity="1" fill-rule="nonzero"/><path fill="#c18845" d="M 333.25 273.726562 C 324.039062 288.226562 312.910156 301.078125 299.867188 312.273438 C 276.21875 297.429688 251.246094 285.316406 224.945312 275.929688 C 188.203125 262.667969 147.589844 253.6875 104.242188 249.246094 C 85.480469 247.316406 67.734375 246.414062 51.765625 246.15625 C 71.046875 241.011719 90.609375 237.363281 110.453125 235.214844 C 164.28125 229.332031 244.460938 232.035156 333.25 273.726562 Z M 333.25 273.726562 " fill-opacity="1" fill-rule="nonzero"/><g clip-path="url(#e6fbf608ea)"><path fill="#5d7052" d="M 359.96875 181.589844 C 359.980469 188.742188 359.542969 195.863281 358.664062 202.960938 C 357.78125 210.054688 356.460938 217.070312 354.703125 224 C 352.945312 230.929688 350.757812 237.726562 348.148438 244.382812 C 345.539062 251.042969 342.523438 257.511719 339.105469 263.792969 C 321.285156 255.296875 302.976562 248.027344 284.179688 241.988281 C 265.382812 235.945312 246.265625 231.1875 226.828125 227.707031 C 217.347656 226.035156 207.839844 224.699219 198.308594 223.699219 C 197.6875 212.871094 198.636719 202.175781 201.148438 191.625 C 201.738281 192.058594 202.351562 192.460938 202.980469 192.835938 C 203.613281 193.207031 204.261719 193.550781 204.925781 193.859375 C 205.589844 194.167969 206.269531 194.441406 206.960938 194.683594 C 207.652344 194.925781 208.355469 195.132812 209.070312 195.304688 C 209.78125 195.476562 210.503906 195.609375 211.230469 195.710938 C 211.957031 195.808594 212.683594 195.875 213.417969 195.902344 C 214.152344 195.929688 214.882812 195.917969 215.617188 195.875 C 216.347656 195.828125 217.074219 195.746094 217.800781 195.628906 C 218.523438 195.507812 219.238281 195.355469 219.949219 195.164062 C 220.65625 194.976562 221.351562 194.753906 222.039062 194.492188 C 222.726562 194.234375 223.398438 193.941406 224.054688 193.617188 C 224.710938 193.289062 225.351562 192.933594 225.972656 192.542969 C 226.59375 192.15625 227.191406 191.734375 227.773438 191.285156 C 228.351562 190.835938 228.90625 190.359375 229.441406 189.855469 C 229.972656 189.351562 230.476562 188.820312 230.957031 188.265625 C 231.433594 187.710938 231.886719 187.136719 232.308594 186.535156 C 231.757812 186.09375 231.1875 185.675781 230.597656 185.285156 C 230.007812 184.898438 229.402344 184.535156 228.777344 184.207031 C 228.152344 183.875 227.515625 183.574219 226.863281 183.304688 C 226.207031 183.035156 225.542969 182.796875 224.867188 182.589844 C 224.191406 182.382812 223.507812 182.210938 222.816406 182.070312 C 222.121094 181.929688 221.425781 181.820312 220.722656 181.75 C 220.019531 181.675781 219.3125 181.636719 218.605469 181.628906 C 217.898438 181.625 217.195312 181.652344 216.492188 181.710938 C 215.785156 181.773438 215.085938 181.871094 214.390625 182 C 213.695312 182.128906 213.007812 182.289062 212.332031 182.484375 C 211.652344 182.679688 210.980469 182.90625 210.324219 183.164062 C 209.667969 183.421875 209.023438 183.710938 208.394531 184.035156 C 207.765625 184.355469 207.152344 184.703125 206.554688 185.082031 C 205.957031 185.460938 205.382812 185.871094 204.824219 186.304688 C 204.269531 186.738281 203.734375 187.199219 203.222656 187.683594 C 202.707031 188.171875 202.21875 188.679688 201.757812 189.214844 C 203.355469 183.09375 205.4375 177.144531 208.011719 171.363281 C 208.601562 171.8125 209.210938 172.226562 209.84375 172.613281 C 210.476562 173 211.125 173.351562 211.792969 173.675781 C 212.460938 173.996094 213.144531 174.28125 213.839844 174.535156 C 214.535156 174.785156 215.242188 175.003906 215.960938 175.183594 C 216.679688 175.367188 217.40625 175.511719 218.136719 175.621094 C 218.871094 175.730469 219.605469 175.800781 220.347656 175.835938 C 221.085938 175.871094 221.828125 175.867188 222.566406 175.828125 C 223.304688 175.789062 224.042969 175.710938 224.773438 175.597656 C 225.503906 175.484375 226.230469 175.335938 226.945312 175.148438 C 227.664062 174.960938 228.371094 174.742188 229.066406 174.484375 C 229.757812 174.226562 230.4375 173.9375 231.105469 173.609375 C 231.769531 173.285156 232.417969 172.929688 233.046875 172.539062 C 233.675781 172.148438 234.285156 171.726562 234.871094 171.277344 C 235.457031 170.824219 236.023438 170.34375 236.5625 169.835938 C 237.097656 169.328125 237.613281 168.796875 238.097656 168.238281 C 238.582031 167.675781 239.039062 167.09375 239.464844 166.492188 C 238.921875 166.050781 238.355469 165.636719 237.773438 165.253906 C 237.191406 164.867188 236.59375 164.507812 235.976562 164.179688 C 235.359375 163.851562 234.726562 163.550781 234.082031 163.28125 C 233.4375 163.011719 232.78125 162.773438 232.113281 162.566406 C 231.445312 162.359375 230.769531 162.183594 230.085938 162.042969 C 229.398438 161.898438 228.710938 161.789062 228.015625 161.710938 C 227.320312 161.632812 226.621094 161.589844 225.921875 161.578125 C 225.226562 161.566406 224.527344 161.589844 223.828125 161.644531 C 223.132812 161.699219 222.4375 161.785156 221.75 161.90625 C 221.0625 162.027344 220.378906 162.179688 219.707031 162.363281 C 219.03125 162.550781 218.367188 162.765625 217.714844 163.015625 C 217.058594 163.261719 216.417969 163.542969 215.792969 163.851562 C 215.164062 164.160156 214.554688 164.496094 213.960938 164.863281 C 213.363281 165.230469 212.789062 165.625 212.230469 166.046875 C 211.671875 166.46875 211.136719 166.914062 210.621094 167.386719 C 210.105469 167.859375 209.613281 168.355469 209.144531 168.875 C 211.871094 163.136719 214.996094 157.621094 218.519531 152.335938 C 219.074219 152.8125 219.648438 153.265625 220.246094 153.6875 C 220.84375 154.109375 221.460938 154.5 222.097656 154.863281 C 222.734375 155.222656 223.390625 155.550781 224.058594 155.847656 C 224.730469 156.144531 225.410156 156.40625 226.109375 156.632812 C 226.804688 156.863281 227.507812 157.054688 228.222656 157.214844 C 228.9375 157.371094 229.660156 157.492188 230.386719 157.578125 C 231.113281 157.667969 231.84375 157.71875 232.578125 157.730469 C 233.308594 157.746094 234.039062 157.722656 234.769531 157.664062 C 235.5 157.605469 236.226562 157.511719 236.945312 157.382812 C 237.667969 157.25 238.378906 157.085938 239.082031 156.882812 C 239.789062 156.683594 240.480469 156.449219 241.160156 156.175781 C 241.839844 155.90625 242.507812 155.605469 243.15625 155.269531 C 243.808594 154.933594 244.441406 154.566406 245.054688 154.167969 C 245.667969 153.769531 246.261719 153.339844 246.832031 152.882812 C 247.402344 152.425781 247.949219 151.941406 248.472656 151.429688 C 248.996094 150.914062 249.492188 150.378906 249.964844 149.816406 C 249.027344 148.921875 248.023438 148.113281 246.945312 147.394531 C 245.867188 146.671875 244.734375 146.054688 243.546875 145.53125 C 242.359375 145.011719 241.136719 144.597656 239.878906 144.292969 C 238.617188 143.988281 237.339844 143.792969 236.046875 143.710938 C 234.753906 143.632812 233.460938 143.664062 232.175781 143.808594 C 230.886719 143.957031 229.621094 144.214844 228.378906 144.582031 C 227.136719 144.949219 225.933594 145.425781 224.777344 146.003906 C 223.617188 146.582031 222.515625 147.261719 221.476562 148.03125 C 225.253906 142.804688 229.355469 137.847656 233.78125 133.15625 C 234.144531 133.664062 234.53125 134.15625 234.945312 134.628906 C 235.355469 135.101562 235.789062 135.554688 236.246094 135.984375 C 236.703125 136.414062 237.179688 136.820312 237.675781 137.203125 C 238.171875 137.585938 238.6875 137.945312 239.21875 138.277344 C 239.75 138.609375 240.296875 138.914062 240.859375 139.195312 C 241.421875 139.472656 241.996094 139.722656 242.582031 139.945312 C 243.167969 140.167969 243.765625 140.363281 244.371094 140.523438 C 244.976562 140.6875 245.589844 140.820312 246.207031 140.925781 C 246.828125 141.027344 247.449219 141.101562 248.074219 141.144531 C 248.699219 141.1875 249.328125 141.199219 249.953125 141.179688 C 250.582031 141.160156 251.207031 141.109375 251.828125 141.027344 C 252.449219 140.945312 253.066406 140.835938 253.679688 140.695312 C 254.289062 140.550781 254.894531 140.382812 255.488281 140.179688 C 256.082031 139.980469 256.664062 139.75 257.234375 139.492188 C 257.808594 139.234375 258.367188 138.949219 258.910156 138.632812 C 259.453125 138.320312 259.980469 137.980469 260.488281 137.617188 C 259.894531 136.65625 259.21875 135.753906 258.460938 134.910156 C 257.703125 134.066406 256.878906 133.300781 255.984375 132.601562 C 255.09375 131.90625 254.144531 131.296875 253.140625 130.769531 C 252.140625 130.242188 251.097656 129.808594 250.019531 129.464844 C 248.9375 129.125 247.835938 128.878906 246.710938 128.734375 C 245.589844 128.585938 244.460938 128.542969 243.332031 128.597656 C 242.199219 128.648438 241.082031 128.804688 239.976562 129.058594 C 238.871094 129.308594 237.800781 129.660156 236.757812 130.101562 C 240.773438 126.0625 245.019531 122.285156 249.5 118.769531 C 249.503906 118.789062 249.503906 118.808594 249.5 118.832031 C 250.222656 119.046875 250.953125 119.222656 251.695312 119.363281 C 252.4375 119.503906 253.183594 119.605469 253.9375 119.667969 C 254.6875 119.734375 255.441406 119.757812 256.195312 119.746094 C 256.949219 119.730469 257.703125 119.679688 258.453125 119.589844 C 259.203125 119.5 259.945312 119.371094 260.679688 119.207031 C 261.417969 119.039062 262.140625 118.835938 262.859375 118.597656 C 263.574219 118.355469 264.273438 118.078125 264.960938 117.769531 C 265.648438 117.457031 266.316406 117.109375 266.96875 116.730469 C 267.621094 116.347656 268.25 115.933594 268.859375 115.492188 C 269.46875 115.046875 270.054688 114.570312 270.613281 114.066406 C 271.175781 113.5625 271.707031 113.027344 272.214844 112.46875 C 272.71875 111.910156 273.195312 111.324219 273.640625 110.71875 C 274.089844 110.109375 274.5 109.480469 274.882812 108.828125 C 275.265625 108.179688 275.613281 107.511719 275.925781 106.824219 C 276.238281 106.140625 276.515625 105.4375 276.757812 104.726562 C 276.996094 104.011719 277.203125 103.285156 277.367188 102.550781 C 276.660156 102.339844 275.945312 102.164062 275.21875 102.023438 C 274.496094 101.882812 273.765625 101.78125 273.03125 101.714844 C 272.292969 101.644531 271.558594 101.617188 270.820312 101.625 C 270.082031 101.628906 269.34375 101.675781 268.609375 101.753906 C 267.875 101.835938 267.148438 101.953125 266.425781 102.105469 C 265.703125 102.257812 264.992188 102.449219 264.289062 102.675781 C 263.585938 102.898438 262.894531 103.160156 262.21875 103.453125 C 261.539062 103.746094 260.878906 104.074219 260.234375 104.433594 C 259.589844 104.792969 258.964844 105.183594 258.359375 105.609375 C 257.757812 106.03125 257.175781 106.484375 256.613281 106.964844 C 256.054688 107.445312 255.519531 107.953125 255.011719 108.488281 C 254.503906 109.023438 254.023438 109.582031 253.570312 110.164062 C 253.117188 110.746094 252.695312 111.351562 252.300781 111.976562 C 251.910156 112.601562 251.550781 113.242188 251.222656 113.902344 C 250.894531 114.566406 250.601562 115.242188 250.34375 115.929688 C 250.082031 116.621094 249.859375 117.324219 249.667969 118.035156 C 246.035156 120.046875 242.601562 122.128906 239.367188 124.285156 C 240.03125 123.449219 240.625 122.570312 241.148438 121.636719 C 241.671875 120.707031 242.113281 119.742188 242.476562 118.738281 C 242.839844 117.738281 243.117188 116.710938 243.3125 115.664062 C 243.507812 114.613281 243.617188 113.558594 243.640625 112.492188 C 243.664062 111.425781 243.597656 110.363281 243.445312 109.308594 C 243.292969 108.253906 243.058594 107.21875 242.734375 106.203125 C 242.414062 105.183594 242.011719 104.199219 241.527344 103.25 C 241.046875 102.296875 240.488281 101.394531 239.855469 100.535156 C 239.308594 100.882812 238.773438 101.257812 238.261719 101.660156 C 237.75 102.0625 237.257812 102.488281 236.789062 102.9375 C 236.316406 103.386719 235.871094 103.863281 235.449219 104.355469 C 235.023438 104.851562 234.628906 105.367188 234.257812 105.902344 C 233.882812 106.4375 233.539062 106.988281 233.226562 107.558594 C 232.910156 108.128906 232.621094 108.710938 232.363281 109.308594 C 232.105469 109.90625 231.878906 110.515625 231.683594 111.136719 C 231.484375 111.757812 231.320312 112.386719 231.1875 113.023438 C 231.054688 113.660156 230.953125 114.304688 230.882812 114.953125 C 230.8125 115.597656 230.773438 116.246094 230.769531 116.898438 C 230.765625 117.550781 230.792969 118.199219 230.855469 118.847656 C 230.914062 119.496094 231.007812 120.140625 231.132812 120.777344 C 231.257812 121.417969 231.414062 122.046875 231.601562 122.671875 C 231.789062 123.296875 232.007812 123.90625 232.257812 124.507812 C 232.507812 125.109375 232.785156 125.699219 233.09375 126.273438 C 233.402344 126.84375 233.738281 127.402344 234.101562 127.941406 C 230.4375 130.621094 227.0625 133.371094 223.933594 136.171875 C 224.40625 135.203125 224.796875 134.203125 225.105469 133.167969 C 225.414062 132.136719 225.636719 131.085938 225.769531 130.015625 C 225.902344 128.945312 225.949219 127.871094 225.90625 126.792969 C 225.863281 125.71875 225.730469 124.652344 225.511719 123.597656 C 225.292969 122.539062 224.984375 121.511719 224.597656 120.503906 C 224.207031 119.5 223.734375 118.535156 223.1875 117.605469 C 222.636719 116.679688 222.015625 115.800781 221.320312 114.976562 C 220.625 114.152344 219.867188 113.390625 219.046875 112.691406 C 218.597656 113.148438 218.175781 113.628906 217.777344 114.132812 C 217.375 114.632812 217 115.152344 216.652344 115.691406 C 216.304688 116.226562 215.980469 116.78125 215.6875 117.351562 C 215.394531 117.921875 215.128906 118.503906 214.890625 119.097656 C 214.652344 119.695312 214.445312 120.300781 214.269531 120.917969 C 214.09375 121.535156 213.945312 122.15625 213.832031 122.785156 C 213.714844 123.417969 213.628906 124.050781 213.578125 124.691406 C 213.523438 125.328125 213.5 125.96875 213.511719 126.609375 C 213.519531 127.25 213.5625 127.890625 213.636719 128.527344 C 213.707031 129.164062 213.8125 129.796875 213.945312 130.421875 C 214.082031 131.050781 214.246094 131.667969 214.441406 132.277344 C 214.636719 132.890625 214.863281 133.488281 215.117188 134.078125 C 215.375 134.664062 215.65625 135.238281 215.96875 135.800781 C 216.277344 136.359375 216.617188 136.902344 216.980469 137.429688 C 217.347656 137.957031 217.738281 138.464844 218.152344 138.957031 C 218.566406 139.445312 219.003906 139.910156 219.464844 140.359375 C 216.453125 143.347656 213.609375 146.496094 210.941406 149.800781 C 211.066406 148.808594 211.113281 147.8125 211.082031 146.8125 C 211.054688 145.8125 210.949219 144.824219 210.765625 143.839844 C 210.585938 142.855469 210.332031 141.894531 210 140.949219 C 209.671875 140.003906 209.273438 139.089844 208.800781 138.207031 C 208.332031 137.324219 207.796875 136.484375 207.199219 135.683594 C 206.601562 134.882812 205.941406 134.132812 205.230469 133.429688 C 204.515625 132.730469 203.75 132.089844 202.9375 131.503906 C 202.125 130.921875 201.273438 130.402344 200.378906 129.949219 C 200.066406 130.480469 199.773438 131.023438 199.511719 131.578125 C 199.246094 132.136719 199.007812 132.703125 198.796875 133.28125 C 198.589844 133.863281 198.40625 134.449219 198.25 135.046875 C 198.097656 135.640625 197.96875 136.242188 197.871094 136.851562 C 197.773438 137.460938 197.707031 138.070312 197.664062 138.6875 C 197.625 139.300781 197.613281 139.914062 197.632812 140.53125 C 197.652344 141.148438 197.699219 141.761719 197.777344 142.371094 C 197.851562 142.984375 197.957031 143.589844 198.089844 144.191406 C 198.226562 144.792969 198.386719 145.386719 198.578125 145.972656 C 198.765625 146.558594 198.984375 147.132812 199.230469 147.699219 C 199.472656 148.265625 199.742188 148.816406 200.042969 149.355469 C 200.339844 149.894531 200.660156 150.421875 201.007812 150.929688 C 201.351562 151.441406 201.722656 151.933594 202.117188 152.40625 C 202.507812 152.878906 202.921875 153.335938 203.359375 153.769531 C 203.796875 154.207031 204.253906 154.621094 204.726562 155.011719 C 205.203125 155.40625 205.695312 155.773438 206.207031 156.121094 C 203.976562 159.332031 201.988281 162.53125 200.238281 165.714844 C 200.230469 163.90625 199.976562 162.136719 199.46875 160.402344 C 197.894531 154.996094 195.699219 153.511719 191.035156 151.148438 C 188.351562 155.609375 186.171875 160.832031 187.738281 166.242188 C 189.105469 170.960938 191.910156 172.382812 195.777344 174.84375 C 192.320312 182.804688 189.851562 191.0625 188.371094 199.613281 C 186.761719 187.027344 183.429688 174.914062 178.371094 163.277344 C 179.019531 162.863281 179.644531 162.417969 180.25 161.941406 C 180.855469 161.464844 181.433594 160.960938 181.988281 160.429688 C 182.546875 159.898438 183.074219 159.339844 183.578125 158.757812 C 184.078125 158.175781 184.550781 157.574219 184.996094 156.945312 C 185.441406 156.316406 185.851562 155.671875 186.234375 155.003906 C 186.617188 154.335938 186.964844 153.652344 187.28125 152.949219 C 187.597656 152.25 187.878906 151.535156 188.125 150.808594 C 188.371094 150.082031 188.585938 149.34375 188.761719 148.59375 C 188.9375 147.847656 189.078125 147.089844 189.179688 146.328125 C 189.285156 145.566406 189.351562 144.804688 189.378906 144.035156 C 189.410156 143.269531 189.402344 142.5 189.359375 141.734375 C 189.316406 140.964844 189.234375 140.203125 189.117188 139.441406 C 189 138.683594 188.84375 137.929688 188.65625 137.1875 C 188.464844 136.441406 188.242188 135.707031 187.980469 134.984375 C 187.71875 134.261719 187.425781 133.554688 187.097656 132.859375 C 186.765625 132.164062 186.40625 131.484375 186.011719 130.824219 C 185.035156 131.324219 184.09375 131.882812 183.195312 132.507812 C 182.292969 133.136719 181.441406 133.820312 180.632812 134.5625 C 179.824219 135.304688 179.074219 136.097656 178.375 136.941406 C 177.675781 137.785156 177.039062 138.675781 176.460938 139.609375 C 175.882812 140.539062 175.375 141.507812 174.929688 142.507812 C 174.484375 143.511719 174.109375 144.539062 173.808594 145.589844 C 173.503906 146.644531 173.273438 147.710938 173.117188 148.796875 C 172.957031 149.882812 172.875 150.972656 172.867188 152.066406 C 170.632812 148.011719 168.191406 144.085938 165.539062 140.285156 C 166.167969 139.863281 166.773438 139.410156 167.359375 138.929688 C 167.945312 138.449219 168.503906 137.941406 169.042969 137.40625 C 169.578125 136.871094 170.089844 136.316406 170.570312 135.730469 C 171.054688 135.148438 171.511719 134.546875 171.9375 133.921875 C 172.363281 133.296875 172.757812 132.652344 173.125 131.988281 C 173.488281 131.324219 173.820312 130.644531 174.121094 129.953125 C 174.421875 129.257812 174.691406 128.550781 174.925781 127.832031 C 175.15625 127.109375 175.355469 126.382812 175.519531 125.644531 C 175.683594 124.902344 175.8125 124.160156 175.90625 123.410156 C 176 122.65625 176.058594 121.902344 176.082031 121.148438 C 176.101562 120.390625 176.089844 119.636719 176.039062 118.882812 C 175.992188 118.125 175.90625 117.375 175.785156 116.628906 C 175.664062 115.882812 175.507812 115.140625 175.316406 114.410156 C 175.125 113.675781 174.898438 112.957031 174.640625 112.246094 C 174.378906 111.535156 174.085938 110.835938 173.761719 110.152344 C 173.4375 109.472656 173.078125 108.804688 172.6875 108.15625 C 171.59375 108.710938 170.546875 109.34375 169.550781 110.058594 C 168.550781 110.773438 167.613281 111.5625 166.738281 112.421875 C 165.859375 113.28125 165.054688 114.199219 164.320312 115.183594 C 163.582031 116.164062 162.925781 117.199219 162.351562 118.28125 C 161.773438 119.363281 161.28125 120.484375 160.878906 121.644531 C 160.472656 122.800781 160.160156 123.984375 159.9375 125.191406 C 159.714844 126.394531 159.585938 127.613281 159.550781 128.839844 C 159.515625 130.0625 159.570312 131.285156 159.722656 132.503906 C 156.445312 128.445312 152.953125 124.578125 149.25 120.902344 C 149.820312 120.355469 150.359375 119.78125 150.871094 119.179688 C 151.382812 118.582031 151.863281 117.957031 152.3125 117.308594 C 152.761719 116.660156 153.179688 115.992188 153.5625 115.304688 C 153.945312 114.617188 154.296875 113.910156 154.609375 113.1875 C 154.925781 112.464844 155.203125 111.726562 155.445312 110.976562 C 155.683594 110.226562 155.890625 109.46875 156.054688 108.695312 C 156.222656 107.925781 156.351562 107.148438 156.4375 106.367188 C 156.527344 105.585938 156.578125 104.796875 156.589844 104.011719 C 156.605469 103.222656 156.578125 102.4375 156.511719 101.652344 C 156.445312 100.863281 156.339844 100.085938 156.199219 99.308594 C 156.054688 98.535156 155.875 97.769531 155.65625 97.011719 C 155.4375 96.253906 155.183594 95.507812 154.890625 94.777344 C 154.597656 94.046875 154.273438 93.328125 153.910156 92.628906 C 153.546875 91.929688 153.148438 91.25 152.71875 90.589844 C 152.289062 89.925781 151.828125 89.289062 151.335938 88.671875 C 150.84375 88.058594 150.320312 87.46875 149.769531 86.90625 C 148.761719 87.761719 147.832031 88.699219 146.976562 89.710938 C 146.125 90.722656 145.359375 91.796875 144.683594 92.9375 C 144.007812 94.074219 143.429688 95.261719 142.953125 96.496094 C 142.472656 97.726562 142.097656 98.992188 141.828125 100.289062 C 141.558594 101.585938 141.398438 102.894531 141.34375 104.214844 C 141.292969 105.539062 141.347656 106.855469 141.515625 108.167969 C 141.679688 109.480469 141.953125 110.773438 142.332031 112.039062 C 142.710938 113.308594 143.191406 114.535156 143.773438 115.722656 C 139.9375 112.277344 135.769531 108.910156 131.265625 105.613281 C 131.710938 104.949219 132.125 104.265625 132.5 103.5625 C 132.878906 102.855469 133.222656 102.136719 133.527344 101.398438 C 133.835938 100.660156 134.101562 99.90625 134.332031 99.144531 C 134.566406 98.378906 134.757812 97.601562 134.910156 96.820312 C 135.0625 96.035156 135.175781 95.246094 135.25 94.449219 C 135.324219 93.652344 135.359375 92.855469 135.355469 92.058594 C 135.347656 91.257812 135.304688 90.460938 135.21875 89.667969 C 135.132812 88.871094 135.007812 88.082031 134.84375 87.300781 C 134.679688 86.519531 134.476562 85.746094 134.234375 84.984375 C 133.992188 84.222656 133.714844 83.476562 133.398438 82.742188 C 133.082031 82.007812 132.726562 81.292969 132.339844 80.59375 C 131.953125 79.894531 131.53125 79.21875 131.074219 78.558594 C 130.617188 77.902344 130.128906 77.273438 129.609375 76.664062 C 129.089844 76.054688 128.542969 75.476562 127.964844 74.921875 C 127.386719 74.371094 126.785156 73.847656 126.15625 73.355469 C 125.523438 72.859375 124.871094 72.402344 124.195312 71.972656 C 123.421875 73.027344 122.734375 74.140625 122.140625 75.308594 C 121.550781 76.476562 121.054688 77.683594 120.660156 78.933594 C 120.265625 80.179688 119.972656 81.453125 119.789062 82.75 C 119.601562 84.046875 119.523438 85.347656 119.550781 86.65625 C 119.578125 87.964844 119.710938 89.265625 119.953125 90.550781 C 120.195312 91.839844 120.539062 93.097656 120.984375 94.328125 C 121.433594 95.558594 121.976562 96.746094 122.621094 97.886719 C 123.261719 99.027344 123.992188 100.109375 124.8125 101.132812 C 120.832031 98.496094 116.613281 95.945312 112.152344 93.484375 C 111.917969 92.609375 111.644531 91.75 111.324219 90.902344 C 111.007812 90.054688 110.648438 89.226562 110.246094 88.417969 C 109.84375 87.605469 109.402344 86.820312 108.921875 86.050781 C 108.441406 85.285156 107.921875 84.546875 107.367188 83.832031 C 106.8125 83.117188 106.226562 82.429688 105.601562 81.777344 C 104.976562 81.121094 104.324219 80.496094 103.636719 79.90625 C 102.953125 79.316406 102.238281 78.761719 101.496094 78.246094 C 100.753906 77.726562 99.988281 77.246094 99.199219 76.804688 C 98.410156 76.359375 97.601562 75.960938 96.769531 75.597656 C 95.941406 75.238281 95.09375 74.917969 94.234375 74.640625 C 93.371094 74.367188 92.496094 74.132812 91.613281 73.945312 C 90.726562 73.753906 89.835938 73.609375 88.933594 73.511719 C 88.035156 73.410156 87.132812 73.355469 86.226562 73.347656 C 85.320312 73.335938 84.417969 73.371094 83.515625 73.453125 C 82.617188 73.535156 81.71875 73.660156 80.832031 73.828125 C 79.941406 74 79.0625 74.214844 78.195312 74.472656 C 78.398438 75.378906 78.648438 76.269531 78.941406 77.148438 C 79.238281 78.027344 79.578125 78.890625 79.960938 79.734375 C 80.34375 80.578125 80.769531 81.402344 81.238281 82.203125 C 81.707031 83.003906 82.214844 83.777344 82.761719 84.527344 C 83.308594 85.277344 83.894531 85.996094 84.515625 86.683594 C 85.136719 87.375 85.792969 88.027344 86.480469 88.652344 C 87.171875 89.273438 87.890625 89.855469 88.636719 90.40625 C 89.386719 90.953125 90.164062 91.460938 90.964844 91.929688 C 91.765625 92.398438 92.589844 92.824219 93.433594 93.207031 C 94.277344 93.59375 95.140625 93.933594 96.019531 94.226562 C 96.902344 94.523438 97.792969 94.773438 98.699219 94.976562 C 99.605469 95.179688 100.519531 95.339844 101.441406 95.449219 C 102.363281 95.558594 103.289062 95.621094 104.21875 95.636719 C 105.144531 95.652344 106.070312 95.621094 106.996094 95.539062 C 107.921875 95.460938 108.839844 95.335938 109.753906 95.160156 C 110.664062 94.988281 111.566406 94.765625 112.453125 94.5 L 112.453125 94.417969 C 117.957031 98.730469 123.167969 103.367188 128.09375 108.324219 C 126.8125 107.78125 125.496094 107.355469 124.140625 107.046875 C 122.785156 106.738281 121.414062 106.550781 120.023438 106.488281 C 118.636719 106.421875 117.253906 106.480469 115.875 106.660156 C 114.496094 106.839844 113.144531 107.140625 111.820312 107.5625 C 110.496094 107.980469 109.21875 108.515625 107.988281 109.160156 C 106.757812 109.808594 105.59375 110.558594 104.5 111.414062 C 103.402344 112.265625 102.390625 113.210938 101.460938 114.242188 C 100.53125 115.277344 99.703125 116.382812 98.972656 117.5625 C 99.597656 118.011719 100.242188 118.429688 100.910156 118.8125 C 101.578125 119.199219 102.261719 119.550781 102.960938 119.867188 C 103.664062 120.183594 104.378906 120.464844 105.109375 120.714844 C 105.835938 120.960938 106.578125 121.171875 107.328125 121.347656 C 108.078125 121.519531 108.832031 121.65625 109.597656 121.757812 C 110.359375 121.855469 111.128906 121.917969 111.898438 121.941406 C 112.667969 121.96875 113.433594 121.953125 114.203125 121.902344 C 114.972656 121.851562 115.734375 121.761719 116.496094 121.636719 C 117.253906 121.507812 118.007812 121.34375 118.75 121.144531 C 119.492188 120.945312 120.226562 120.707031 120.945312 120.433594 C 121.664062 120.164062 122.371094 119.855469 123.058594 119.511719 C 123.75 119.171875 124.421875 118.796875 125.074219 118.386719 C 125.726562 117.980469 126.355469 117.539062 126.964844 117.070312 C 127.574219 116.601562 128.160156 116.101562 128.722656 115.574219 C 129.28125 115.046875 129.8125 114.492188 130.320312 113.910156 C 130.824219 113.332031 131.300781 112.726562 131.746094 112.101562 C 137.179688 117.863281 142.21875 123.953125 146.855469 130.371094 C 146.21875 129.894531 145.5625 129.449219 144.890625 129.035156 C 144.214844 128.617188 143.519531 128.230469 142.8125 127.875 C 142.101562 127.519531 141.378906 127.195312 140.640625 126.902344 C 139.902344 126.609375 139.152344 126.347656 138.390625 126.121094 C 137.632812 125.894531 136.863281 125.703125 136.085938 125.542969 C 135.304688 125.382812 134.523438 125.257812 133.734375 125.167969 C 132.945312 125.078125 132.15625 125.023438 131.359375 125 C 130.566406 124.980469 129.773438 124.996094 128.980469 125.042969 C 128.1875 125.089844 127.398438 125.175781 126.613281 125.292969 C 125.828125 125.410156 125.050781 125.5625 124.28125 125.75 C 123.507812 125.933594 122.746094 126.152344 121.992188 126.40625 C 121.242188 126.660156 120.5 126.945312 119.773438 127.261719 C 119.046875 127.582031 118.332031 127.929688 117.636719 128.3125 C 116.941406 128.691406 116.261719 129.101562 115.601562 129.542969 C 114.941406 129.980469 114.300781 130.449219 113.679688 130.945312 C 113.0625 131.441406 112.464844 131.964844 111.890625 132.511719 C 112.46875 133.199219 113.078125 133.859375 113.71875 134.488281 C 114.359375 135.117188 115.03125 135.710938 115.734375 136.273438 C 116.433594 136.835938 117.160156 137.359375 117.914062 137.847656 C 118.667969 138.339844 119.445312 138.789062 120.242188 139.203125 C 121.042969 139.613281 121.859375 139.988281 122.691406 140.316406 C 123.527344 140.648438 124.378906 140.9375 125.242188 141.183594 C 126.105469 141.433594 126.980469 141.636719 127.863281 141.796875 C 128.75 141.957031 129.640625 142.070312 130.535156 142.144531 C 131.429688 142.214844 132.328125 142.242188 133.226562 142.222656 C 134.125 142.207031 135.019531 142.144531 135.914062 142.039062 C 136.804688 141.933594 137.691406 141.78125 138.566406 141.589844 C 139.445312 141.394531 140.3125 141.15625 141.164062 140.875 C 142.019531 140.597656 142.855469 140.273438 143.679688 139.910156 C 144.5 139.546875 145.300781 139.144531 146.082031 138.703125 C 146.863281 138.257812 147.621094 137.777344 148.355469 137.261719 C 149.089844 136.742188 149.796875 136.1875 150.476562 135.601562 C 154.808594 142.089844 158.644531 148.855469 161.984375 155.90625 C 161.410156 155.269531 160.808594 154.660156 160.175781 154.078125 C 159.542969 153.5 158.886719 152.953125 158.203125 152.433594 C 157.519531 151.917969 156.8125 151.433594 156.082031 150.984375 C 155.351562 150.53125 154.601562 150.117188 153.832031 149.738281 C 153.0625 149.359375 152.277344 149.015625 151.472656 148.710938 C 150.671875 148.40625 149.859375 148.140625 149.03125 147.914062 C 148.203125 147.6875 147.367188 147.5 146.523438 147.351562 C 145.675781 147.203125 144.828125 147.09375 143.972656 147.027344 C 143.117188 146.960938 142.257812 146.933594 141.402344 146.945312 C 140.542969 146.960938 139.6875 147.015625 138.835938 147.109375 C 137.984375 147.203125 137.136719 147.339844 136.296875 147.515625 C 135.457031 147.691406 134.625 147.902344 133.808594 148.15625 C 132.988281 148.410156 132.183594 148.703125 131.390625 149.035156 C 130.597656 149.363281 129.824219 149.730469 129.066406 150.132812 C 128.3125 150.539062 127.574219 150.976562 126.859375 151.449219 C 126.144531 151.921875 125.453125 152.429688 124.785156 152.96875 C 125.308594 153.710938 125.867188 154.425781 126.460938 155.113281 C 127.058594 155.800781 127.683594 156.457031 128.347656 157.078125 C 129.007812 157.703125 129.699219 158.292969 130.417969 158.847656 C 131.136719 159.398438 131.882812 159.917969 132.65625 160.394531 C 133.429688 160.875 134.222656 161.316406 135.039062 161.714844 C 135.855469 162.113281 136.691406 162.472656 137.542969 162.789062 C 138.394531 163.101562 139.261719 163.375 140.140625 163.605469 C 141.019531 163.832031 141.910156 164.015625 142.808594 164.15625 C 143.707031 164.292969 144.609375 164.386719 145.519531 164.4375 C 146.425781 164.484375 147.335938 164.488281 148.242188 164.445312 C 149.152344 164.402344 150.054688 164.3125 150.953125 164.179688 C 151.851562 164.046875 152.742188 163.867188 153.625 163.644531 C 154.507812 163.421875 155.375 163.15625 156.230469 162.84375 C 157.082031 162.535156 157.917969 162.183594 158.738281 161.789062 C 159.558594 161.394531 160.355469 160.960938 161.128906 160.484375 C 161.90625 160.011719 162.65625 159.5 163.378906 158.949219 C 166.542969 166.050781 169.113281 173.359375 171.097656 180.878906 C 170.527344 180.222656 169.929688 179.597656 169.296875 179.003906 C 168.667969 178.40625 168.007812 177.84375 167.324219 177.308594 C 166.640625 176.777344 165.929688 176.277344 165.199219 175.8125 C 164.464844 175.347656 163.710938 174.917969 162.9375 174.527344 C 162.164062 174.132812 161.375 173.777344 160.566406 173.460938 C 159.757812 173.144531 158.9375 172.867188 158.101562 172.628906 C 157.269531 172.390625 156.421875 172.191406 155.570312 172.035156 C 154.714844 171.875 153.855469 171.761719 152.992188 171.683594 C 152.128906 171.609375 151.261719 171.578125 150.394531 171.585938 C 149.523438 171.59375 148.660156 171.640625 147.796875 171.734375 C 146.933594 171.824219 146.074219 171.957031 145.226562 172.128906 C 144.375 172.300781 143.535156 172.515625 142.703125 172.769531 C 141.875 173.023438 141.058594 173.316406 140.253906 173.648438 C 139.453125 173.980469 138.667969 174.347656 137.902344 174.753906 C 137.136719 175.164062 136.390625 175.605469 135.667969 176.082031 C 134.945312 176.5625 134.246094 177.074219 133.570312 177.621094 C 134.085938 178.355469 134.640625 179.0625 135.226562 179.746094 C 135.816406 180.425781 136.4375 181.074219 137.089844 181.695312 C 137.742188 182.3125 138.421875 182.898438 139.132812 183.449219 C 139.84375 184.003906 140.582031 184.515625 141.34375 184.996094 C 142.109375 185.472656 142.890625 185.910156 143.699219 186.3125 C 144.503906 186.710938 145.328125 187.070312 146.171875 187.386719 C 147.011719 187.707031 147.867188 187.980469 148.738281 188.214844 C 149.609375 188.445312 150.488281 188.636719 151.375 188.78125 C 152.265625 188.925781 153.15625 189.027344 154.054688 189.082031 C 154.953125 189.136719 155.851562 189.148438 156.753906 189.117188 C 157.652344 189.082031 158.546875 189.003906 159.441406 188.882812 C 160.332031 188.761719 161.214844 188.59375 162.089844 188.382812 C 162.964844 188.171875 163.828125 187.921875 164.679688 187.625 C 165.527344 187.328125 166.363281 186.988281 167.179688 186.609375 C 167.996094 186.230469 168.789062 185.8125 169.5625 185.355469 C 170.339844 184.894531 171.089844 184.402344 171.8125 183.867188 C 174.804688 196.378906 175.996094 209.058594 175.386719 221.90625 C 153.117188 220.777344 130.902344 221.433594 108.738281 223.878906 C 80.484375 226.910156 52.882812 232.921875 25.933594 241.925781 C 22.324219 232.277344 19.605469 222.382812 17.78125 212.246094 C 15.953125 202.109375 15.046875 191.890625 15.058594 181.589844 C 15.058594 86.457031 92.269531 9.335938 187.511719 9.335938 C 282.757812 9.335938 359.96875 86.457031 359.96875 181.589844 Z M 359.96875 181.589844 " fill-opacity="1" fill-rule="nonzero"/></g></svg>